<mxfile host="Electron" agent="Mozilla/5.0 (X11; Linux x86_64) AppleWebKit/537.36 (KHTML, like Gecko) draw.io/26.0.4 Chrome/128.0.6613.186 Electron/32.2.5 Safari/537.36" version="26.0.4">
  <diagram name="Page-1" id="v7W0HKB-ddkHq3dRGSOc">
    <mxGraphModel dx="1114" dy="1027" grid="1" gridSize="10" guides="1" tooltips="1" connect="1" arrows="1" fold="1" page="1" pageScale="1" pageWidth="850" pageHeight="1100" math="0" shadow="0">
      <root>
        <mxCell id="0" />
        <mxCell id="1" parent="0" />
        <mxCell id="9ZbQ5oO4qokfvryO1bJO-18" value="&amp;nbsp;HTTP&amp;nbsp;" style="rounded=0;orthogonalLoop=1;jettySize=auto;html=1;exitX=1;exitY=0.25;exitDx=0;exitDy=0;entryX=0;entryY=0.5;entryDx=0;entryDy=0;startArrow=classic;startFill=1;edgeStyle=orthogonalEdgeStyle;" parent="1" source="9ZbQ5oO4qokfvryO1bJO-1" target="9ZbQ5oO4qokfvryO1bJO-5" edge="1">
          <mxGeometry relative="1" as="geometry" />
        </mxCell>
        <mxCell id="9ZbQ5oO4qokfvryO1bJO-19" value="&amp;nbsp;HTTP&amp;nbsp;" style="rounded=0;orthogonalLoop=1;jettySize=auto;html=1;exitX=1;exitY=0.75;exitDx=0;exitDy=0;entryX=0;entryY=0.5;entryDx=0;entryDy=0;startArrow=classic;startFill=1;edgeStyle=orthogonalEdgeStyle;" parent="1" source="9ZbQ5oO4qokfvryO1bJO-1" target="9ZbQ5oO4qokfvryO1bJO-13" edge="1">
          <mxGeometry relative="1" as="geometry" />
        </mxCell>
        <mxCell id="9ZbQ5oO4qokfvryO1bJO-1" value="External&lt;div&gt;Application&lt;/div&gt;&lt;div&gt;Load&lt;/div&gt;&lt;div&gt;Balancer&lt;/div&gt;&lt;div&gt;(v2)&lt;/div&gt;" style="rounded=0;whiteSpace=wrap;html=1;fontStyle=1" parent="1" vertex="1">
          <mxGeometry x="414" y="290" width="130" height="350" as="geometry" />
        </mxCell>
        <mxCell id="9ZbQ5oO4qokfvryO1bJO-2" value="" style="sketch=0;outlineConnect=0;fontColor=#232F3E;gradientColor=none;fillColor=#8C4FFF;strokeColor=none;dashed=0;verticalLabelPosition=bottom;verticalAlign=top;align=center;html=1;fontSize=12;fontStyle=0;aspect=fixed;pointerEvents=1;shape=mxgraph.aws4.application_load_balancer;" parent="1" vertex="1">
          <mxGeometry x="440" y="540" width="78" height="78" as="geometry" />
        </mxCell>
        <mxCell id="9ZbQ5oO4qokfvryO1bJO-5" value="Target Group for &lt;b&gt;Users&lt;/b&gt; application" style="rounded=0;whiteSpace=wrap;html=1;verticalAlign=top;" parent="1" vertex="1">
          <mxGeometry x="710" y="290" width="240" height="150" as="geometry" />
        </mxCell>
        <mxCell id="9ZbQ5oO4qokfvryO1bJO-6" value="" style="sketch=0;outlineConnect=0;fontColor=#232F3E;gradientColor=none;fillColor=#ED7100;strokeColor=none;dashed=0;verticalLabelPosition=bottom;verticalAlign=top;align=center;html=1;fontSize=12;fontStyle=0;aspect=fixed;pointerEvents=1;shape=mxgraph.aws4.instance2;" parent="1" vertex="1">
          <mxGeometry x="730" y="320" width="70" height="70" as="geometry" />
        </mxCell>
        <mxCell id="9ZbQ5oO4qokfvryO1bJO-7" value="" style="sketch=0;outlineConnect=0;fontColor=#232F3E;gradientColor=none;fillColor=#ED7100;strokeColor=none;dashed=0;verticalLabelPosition=bottom;verticalAlign=top;align=center;html=1;fontSize=12;fontStyle=0;aspect=fixed;pointerEvents=1;shape=mxgraph.aws4.instance2;" parent="1" vertex="1">
          <mxGeometry x="860" y="320" width="70" height="70" as="geometry" />
        </mxCell>
        <mxCell id="9ZbQ5oO4qokfvryO1bJO-8" value="Health Check" style="rounded=0;whiteSpace=wrap;html=1;fillColor=#d5e8d4;strokeColor=#82b366;" parent="1" vertex="1">
          <mxGeometry x="765" y="400" width="130" height="30" as="geometry" />
        </mxCell>
        <mxCell id="9ZbQ5oO4qokfvryO1bJO-13" value="Target Group for &lt;b&gt;Search&lt;/b&gt; application" style="rounded=0;whiteSpace=wrap;html=1;verticalAlign=top;" parent="1" vertex="1">
          <mxGeometry x="710" y="490" width="240" height="150" as="geometry" />
        </mxCell>
        <mxCell id="9ZbQ5oO4qokfvryO1bJO-14" value="" style="sketch=0;outlineConnect=0;fontColor=#232F3E;gradientColor=none;fillColor=#ED7100;strokeColor=none;dashed=0;verticalLabelPosition=bottom;verticalAlign=top;align=center;html=1;fontSize=12;fontStyle=0;aspect=fixed;pointerEvents=1;shape=mxgraph.aws4.instance2;" parent="1" vertex="1">
          <mxGeometry x="730" y="520" width="70" height="70" as="geometry" />
        </mxCell>
        <mxCell id="9ZbQ5oO4qokfvryO1bJO-15" value="" style="sketch=0;outlineConnect=0;fontColor=#232F3E;gradientColor=none;fillColor=#ED7100;strokeColor=none;dashed=0;verticalLabelPosition=bottom;verticalAlign=top;align=center;html=1;fontSize=12;fontStyle=0;aspect=fixed;pointerEvents=1;shape=mxgraph.aws4.instance2;" parent="1" vertex="1">
          <mxGeometry x="860" y="520" width="70" height="70" as="geometry" />
        </mxCell>
        <mxCell id="9ZbQ5oO4qokfvryO1bJO-16" value="Health Check" style="rounded=0;whiteSpace=wrap;html=1;fillColor=#d5e8d4;strokeColor=#82b366;" parent="1" vertex="1">
          <mxGeometry x="765" y="600" width="130" height="30" as="geometry" />
        </mxCell>
        <mxCell id="9ZbQ5oO4qokfvryO1bJO-21" value="&amp;nbsp;Route /user&amp;nbsp;" style="edgeStyle=orthogonalEdgeStyle;rounded=0;orthogonalLoop=1;jettySize=auto;html=1;entryX=0;entryY=0.25;entryDx=0;entryDy=0;" parent="1" source="9ZbQ5oO4qokfvryO1bJO-20" target="9ZbQ5oO4qokfvryO1bJO-1" edge="1">
          <mxGeometry relative="1" as="geometry" />
        </mxCell>
        <mxCell id="9ZbQ5oO4qokfvryO1bJO-20" value="WWW" style="text;html=1;align=center;verticalAlign=middle;resizable=0;points=[];autosize=1;strokeColor=none;fillColor=none;fontSize=35;" parent="1" vertex="1">
          <mxGeometry x="140" y="350" width="120" height="60" as="geometry" />
        </mxCell>
        <mxCell id="9ZbQ5oO4qokfvryO1bJO-23" value="&amp;nbsp;Route /search&amp;nbsp;" style="edgeStyle=orthogonalEdgeStyle;rounded=0;orthogonalLoop=1;jettySize=auto;html=1;entryX=0;entryY=0.75;entryDx=0;entryDy=0;" parent="1" source="9ZbQ5oO4qokfvryO1bJO-22" target="9ZbQ5oO4qokfvryO1bJO-1" edge="1">
          <mxGeometry relative="1" as="geometry" />
        </mxCell>
        <mxCell id="9ZbQ5oO4qokfvryO1bJO-22" value="WWW" style="text;html=1;align=center;verticalAlign=middle;resizable=0;points=[];autosize=1;strokeColor=none;fillColor=none;fontSize=35;" parent="1" vertex="1">
          <mxGeometry x="140" y="525" width="120" height="60" as="geometry" />
        </mxCell>
      </root>
    </mxGraphModel>
  </diagram>
</mxfile>
